<?xml version="1.0" encoding="utf-8"?>
<!-- Generator: Adobe Illustrator 21.1.0, SVG Export Plug-In . SVG Version: 6.00 Build 0)  -->
<svg version="1.1" xmlns="http://www.w3.org/2000/svg" xmlns:xlink="http://www.w3.org/1999/xlink" x="0px" y="0px"
	 viewBox="0 0 520 361" style="enable-background:new 0 0 520 361;" xml:space="preserve">
<style type="text/css">
	.st0{display:none;}
	.st1{display:inline;fill:#FFA73B;stroke:#B57E30;stroke-width:12;stroke-miterlimit:10;}
	.st2{fill:#FFF780;}
	.st3{fill:#FFC02E;}
	.st4{fill:#FFA73B;}
</style>
<g id="Layer_1" class="st0">
	<path class="st1" d="M467.3,54.1c-26.9,0-48.7,21.9-48.7,48.7c0,12.9,5.1,24.7,13.3,33.4c-14.6,16.4-35.9,26.7-59.6,26.7
		c-1.4,0-2.7,0-4.1-0.1c-36.4-1.9-66.5-28.3-74-63c9-8.8,14.5-21.1,14.5-34.7c0-0.8,0-1.7-0.1-2.5c-0.1-2.4-0.4-4.8-0.9-7.1
		c-0.2-0.8-0.3-1.5-0.5-2.3c0-0.1,0-0.2-0.1-0.2c-5.4-20.8-24.1-36.2-46.4-36.5c-0.3,0-0.5,0-0.8,0v0c0,0,0,0,0,0
		c-26.9,0-48.7,21.9-48.7,48.7c0,13.5,5.6,25.8,14.5,34.7c-7.8,36-39.8,63.1-78.1,63.1c-23.6,0-44.9-10.3-59.6-26.7
		c8.2-8.7,13.3-20.5,13.3-33.4c0-26.9-21.9-48.7-48.7-48.7S4,76,4,102.8c0,23.3,16.4,42.8,38.3,47.6c5.2,42.8,16.2,96.8,39.4,133.5
		h0v45c0,8.3,6.8,15.1,15.1,15.1H260h163.2c8.3,0,15.1-6.8,15.1-15.1v-45h0c5.6-8.9,10.5-18.8,14.8-29.3
		c13.4-32.9,20.7-71.8,24.6-104.2c21.9-4.8,38.3-24.3,38.3-47.6C516,76,494.1,54.1,467.3,54.1z"/>
</g>
<g id="Layer_1_copy">
	<path class="st2" d="M438.3,283.9L438.3,283.9c5.6-8.9,10.5-18.8,14.8-29.3C448.8,265.1,443.9,275,438.3,283.9z"/>
	<path class="st2" d="M260,113.9L260,113.9C260,113.9,260,113.9,260,113.9c-13.3,0-25.4-5.4-34.2-14.1c-7.8,36-39.8,63.1-78.1,63.1
		c-23.6,0-44.9-10.3-59.6-26.7c-8.9,9.4-21.5,15.3-35.4,15.3c-3.6,0-7.1-0.4-10.4-1.1c5.2,42.8,16.2,96.8,39.4,133.5H260V113.9z"/>
	<path class="st3" d="M260,113.9v170h178.3c5.6-8.9,10.5-18.8,14.8-29.3c13.4-32.9,20.7-71.8,24.6-104.2c-3.4,0.7-6.9,1.1-10.4,1.1
		c-13.9,0-26.5-5.9-35.4-15.3c-14.6,16.4-35.9,26.7-59.6,26.7c-1.4,0-2.7,0-4.1-0.1c-36.4-1.9-66.5-28.3-74-63
		C285.4,108.6,273.3,113.9,260,113.9z"/>
	<path class="st3" d="M307.2,53.1c-5.4-20.8-24.1-36.2-46.4-36.5C283.1,16.9,301.8,32.3,307.2,53.1z"/>
	<path class="st3" d="M307.2,53.3c0.8,3,1.3,6.2,1.4,9.4C308.5,59.5,308,56.3,307.2,53.3z"/>
	<path class="st3" d="M260,113.9v-46V16.5c0,0,0,0,0,0c-26.9,0-48.7,21.9-48.7,48.7c0,13.5,5.6,25.8,14.5,34.7
		C234.6,108.6,246.7,113.9,260,113.9C260,113.9,260,113.9,260,113.9z"/>
	<path class="st4" d="M260,113.9L260,113.9c13.3,0,25.4-5.4,34.2-14.1c9-8.8,14.5-21.1,14.5-34.7c0-0.8,0-1.7-0.1-2.5
		c-0.2-3.2-0.7-6.4-1.4-9.4c0-0.1,0-0.2-0.1-0.2c-5.4-20.8-24.1-36.2-46.4-36.5c-0.3,0-0.5,0-0.8,0v0v51.4V113.9z"/>
	<path class="st3" d="M88.1,136.2c8.2-8.7,13.3-20.5,13.3-33.4c0-26.9-21.9-48.7-48.7-48.7S4,76,4,102.8c0,23.3,16.4,42.8,38.3,47.6
		c3.4,0.7,6.9,1.1,10.4,1.1C66.7,151.5,79.3,145.6,88.1,136.2z"/>
	<path class="st4" d="M467.3,151.5c3.6,0,7.1-0.4,10.4-1.1c21.9-4.8,38.3-24.3,38.3-47.6c0-26.9-21.9-48.7-48.7-48.7
		s-48.7,21.9-48.7,48.7c0,12.9,5.1,24.7,13.3,33.4C440.7,145.6,453.3,151.5,467.3,151.5z"/>
	<path class="st3" d="M260,294.5v-10.6H81.7h0v45c0,8.3,6.8,15.1,15.1,15.1H260V294.5z"/>
	<path class="st4" d="M260,283.9v10.6v49.5h163.2c8.3,0,15.1-6.8,15.1-15.1v-45h0h0H260z"/>
</g>
</svg>
