<svg id="Layer_1" data-name="Layer 1" xmlns="http://www.w3.org/2000/svg" viewBox="0 0 512 327.5"><defs><style>.cls-1{fill:#ffa73b;}.cls-2{fill:#fff780;}.cls-3{fill:#ffc02e;}</style></defs><title>crown</title><g id="Layer_1-2" data-name="Layer 1"><path class="cls-1" d="M467.3,54.1a48.67,48.67,0,0,0-35.4,82.1,79.56,79.56,0,0,1-59.6,26.7c-1.4,0-2.7,0-4.1-.1a80.22,80.22,0,0,1-74-63,48.31,48.31,0,0,0,14.5-34.7,20.9,20.9,0,0,0-.1-2.5,41.78,41.78,0,0,0-.9-7.1c-.2-.8-.3-1.5-.5-2.3,0-.1,0-.2-.1-.2a48.72,48.72,0,0,0-46.4-36.5h-.8a48.72,48.72,0,0,0-34.2,83.4A79.88,79.88,0,0,1,88,136.3a48.66,48.66,0,1,0-45.7,14.1c5.2,42.8,16.2,96.8,39.4,133.5h0v45A15.15,15.15,0,0,0,96.8,344H423.2a15.15,15.15,0,0,0,15.1-15.1v-45h0a191.15,191.15,0,0,0,14.8-29.3c13.4-32.9,20.7-71.8,24.6-104.2a48.71,48.71,0,0,0-10.4-96.3Z" transform="translate(-4 -16.5)"/></g><g id="Layer_1_copy" data-name="Layer 1 copy"><path class="cls-2" d="M438.3,283.9h0a191.15,191.15,0,0,0,14.8-29.3A191.15,191.15,0,0,1,438.3,283.9Z" transform="translate(-4 -16.5)"/><path class="cls-2" d="M260,113.9h0a48.56,48.56,0,0,1-34.2-14.1A79.88,79.88,0,0,1,88.1,136.2a48.69,48.69,0,0,1-35.4,15.3,50.22,50.22,0,0,1-10.4-1.1c5.2,42.8,16.2,96.8,39.4,133.5H260Z" transform="translate(-4 -16.5)"/><path class="cls-3" d="M260,113.9v170H438.3a191.15,191.15,0,0,0,14.8-29.3c13.4-32.9,20.7-71.8,24.6-104.2a51.72,51.72,0,0,1-10.4,1.1,48.69,48.69,0,0,1-35.4-15.3,79.56,79.56,0,0,1-59.6,26.7c-1.4,0-2.7,0-4.1-.1a80.22,80.22,0,0,1-74-63A48.14,48.14,0,0,1,260,113.9Z" transform="translate(-4 -16.5)"/><path class="cls-3" d="M307.2,53.1a48.72,48.72,0,0,0-46.4-36.5A48.72,48.72,0,0,1,307.2,53.1Z" transform="translate(-4 -16.5)"/><path class="cls-3" d="M307.2,53.3a41.84,41.84,0,0,1,1.4,9.4A41.84,41.84,0,0,0,307.2,53.3Z" transform="translate(-4 -16.5)"/><path class="cls-3" d="M260,113.9V16.5h0a48.7,48.7,0,1,0,0,97.4Z" transform="translate(-4 -16.5)"/><path class="cls-1" d="M260,113.9h0a48.82,48.82,0,0,0,48.7-48.8,20.9,20.9,0,0,0-.1-2.5,57.55,57.55,0,0,0-1.4-9.4c0-.1,0-.2-.1-.2a48.72,48.72,0,0,0-46.4-36.5h-.8V67.9l.1,46Z" transform="translate(-4 -16.5)"/><path class="cls-3" d="M88.1,136.2a48.66,48.66,0,1,0-45.8,14.2,51.72,51.72,0,0,0,10.4,1.1A48.36,48.36,0,0,0,88.1,136.2Z" transform="translate(-4 -16.5)"/><path class="cls-1" d="M467.3,151.5a50.22,50.22,0,0,0,10.4-1.1,48.82,48.82,0,1,0-10.4,1.1Z" transform="translate(-4 -16.5)"/><path class="cls-3" d="M260,294.5V283.9H81.7v45A15.15,15.15,0,0,0,96.8,344H260Z" transform="translate(-4 -16.5)"/><path class="cls-1" d="M260,283.9V344H423.2a15.15,15.15,0,0,0,15.1-15.1v-45H260Z" transform="translate(-4 -16.5)"/></g></svg>