<?xml version="1.0" encoding="utf-8"?>
<!-- Generator: Adobe Illustrator 21.1.0, SVG Export Plug-In . SVG Version: 6.00 Build 0)  -->
<svg version="1.1" id="Layer_1" xmlns="http://www.w3.org/2000/svg" xmlns:xlink="http://www.w3.org/1999/xlink" x="0px" y="0px"
	 viewBox="0 0 1000 1000" style="enable-background:new 0 0 1000 1000;" xml:space="preserve">
<style type="text/css">
	.st0{fill:#F4F4F4;}
</style>
<g>
	<circle class="st0" cx="500" cy="499" r="475"/>
</g>
<g>
	<path d="M456,872.5c-4.7,0-8.5-3.8-8.5-8.5V135c0-4.7,3.8-8.5,8.5-8.5h88c4.7,0,8.5,3.8,8.5,8.5v729c0,4.7-3.8,8.5-8.5,8.5H456z"/>
	<path d="M544,127c4.4,0,8,3.6,8,8v729c0,4.4-3.6,8-8,8h-88c-4.4,0-8-3.6-8-8V135c0-4.4,3.6-8,8-8H544 M544,126h-88c-5,0-9,4-9,9
		v729c0,5,4,9,9,9h88c5,0,9-4,9-9V135C553,130,549,126,544,126L544,126z"/>
</g>
<g>
	<path d="M135.5,548.5c-2.8,0-5-2.2-5-5v-88c0-2.8,2.2-5,5-5h729c2.8,0,5,2.2,5,5v88c0,2.8-2.2,5-5,5H135.5z"/>
	<path d="M864.5,454.5c0.6,0,1,0.4,1,1v88c0,0.6-0.4,1-1,1h-729c-0.6,0-1-0.4-1-1v-88c0-0.6,0.4-1,1-1H864.5 M864.5,446.5h-729
		c-5,0-9,4-9,9v88c0,5,4,9,9,9h729c5,0,9-4,9-9v-88C873.5,450.5,869.5,446.5,864.5,446.5L864.5,446.5z"/>
</g>
</svg>
